<?xml version="1.0" encoding="utf-8"?>
<!-- Generator: Adobe Illustrator 25.1.0, SVG Export Plug-In . SVG Version: 6.00 Build 0)  -->
<svg version="1.1" id="Layer_1" xmlns="http://www.w3.org/2000/svg" xmlns:xlink="http://www.w3.org/1999/xlink" x="0px" y="0px"
	 width="213.2px" height="33px" viewBox="0 0 213.2 33" style="enable-background:new 0 0 213.2 33;" xml:space="preserve">
<style type="text/css">
	.st0{fill:#EB7100;}
	.st1{fill:#003057;}
</style>
<g transform="translate(-43.322 -70.537)">
	<path class="st0" d="M96.9,80.9h2.7v4.4h3.1c1.1-0.1,2.2,0.3,2.9,1.2c0.7,0.9,1,2,0.9,3.2v6.2h-2.7V90c0-0.5-0.1-1-0.5-1.4
		c-0.3-0.4-0.8-0.6-1.3-0.6h-2.4l-0.1,7.8h-2.7V80.9z"/>
	<path class="st0" d="M94.9,91.8c0,1-0.4,2-1.1,2.7l0,0c-0.8,0.8-1.8,1.2-2.9,1.2h-6.1v-2.7h6.1c0.7,0,1.3-0.5,1.3-1.2l0,0l0,0
		c0-0.3-0.1-0.6-0.2-0.8c-0.1-0.1-0.1-0.2-0.2-0.3c-0.1-0.1-0.2-0.3-0.4-0.4c-0.1-0.1-0.3-0.2-0.4-0.3c-0.1-0.1-0.3-0.2-0.5-0.3
		c-0.5-0.2-0.9-0.4-1.4-0.6l-1-0.3c-0.4-0.2-0.8-0.3-1.2-0.6c-0.4-0.2-0.8-0.5-1.1-0.9c-0.3-0.3-0.5-0.6-0.7-0.9
		c0-0.1-0.1-0.2-0.1-0.3c-0.2-0.4-0.3-0.9-0.3-1.4c0-0.4,0-0.7,0.1-1c0.2-0.6,0.5-1.2,1-1.6c0.7-0.8,1.8-1.2,2.8-1.2h5.5v2.7h-5.5
		c-0.3,0-0.7,0.1-0.9,0.4l0,0c-0.2,0.2-0.3,0.5-0.3,0.7c0,0.1,0,0.2,0.1,0.3c0.1,0.2,0.2,0.3,0.3,0.4c0.2,0.2,0.3,0.3,0.5,0.4
		c0.2,0.1,0.5,0.3,0.7,0.4l1,0.3c0.6,0.2,1.1,0.4,1.7,0.7c0.5,0.2,1,0.6,1.4,0.9c0,0,0,0,0,0c0.2,0.2,0.4,0.4,0.6,0.6
		c0,0,0.1,0.1,0.1,0.1c0.5,0.6,0.8,1.3,0.9,2C94.9,91.3,94.9,91.6,94.9,91.8z"/>
	<path class="st0" d="M162.2,85.6c-0.5-0.2-1.1-0.2-1.7-0.2c-0.7,0-1.5,0.1-2.1,0.4c-0.3,0.1-0.5,0.3-0.8,0.4v-0.6h-2.7v10.2h2.7
		v-5.1c0-0.1,0-0.2,0-0.3c0-0.3,0.1-0.6,0.2-0.8c0.1-0.2,0.1-0.3,0.2-0.5c0-0.1,0.1-0.1,0.1-0.2c0.1-0.1,0.2-0.3,0.3-0.4
		c0.1-0.1,0.2-0.2,0.3-0.3c0.2-0.1,0.3-0.2,0.5-0.3c0,0,0,0,0.1,0c0.2-0.1,0.5-0.1,0.8-0.1c0.2,0,0.5,0,0.7,0.1
		c0.2,0,0.4,0.1,0.6,0.2l0-0.1c0,0,0,0,0,0l0.1-0.3l0.8-2.1C162.3,85.6,162.2,85.6,162.2,85.6z"/>
	<path class="st0" d="M129.7,88.5c-0.2-0.6-0.6-1.2-1.1-1.7c-0.4-0.5-1-0.9-1.6-1.1c-0.6-0.2-1.2-0.4-1.8-0.4h-4.9V100h2.7v-4.1h2.3
		c0.6,0,1.3-0.1,1.8-0.4c0.6-0.3,1.1-0.6,1.6-1.1c0.5-0.5,0.8-1.1,1-1.7C130.3,91.4,130.3,89.8,129.7,88.5L129.7,88.5z M127.2,91.7
		c-0.1,0.3-0.3,0.6-0.6,0.8c-0.2,0.2-0.5,0.4-0.8,0.5c-0.3,0.1-0.7,0.2-1,0.2H123V88h1.8c0.3,0,0.7,0.1,1,0.2
		c0.3,0.1,0.6,0.3,0.8,0.5C127.5,89.5,127.7,90.7,127.2,91.7L127.2,91.7z"/>
	<path class="st0" d="M140.9,88.5c-0.2-0.6-0.6-1.2-1-1.7c-0.4-0.5-1-0.9-1.6-1.1c-0.6-0.2-1.2-0.4-1.8-0.4h-4.9V100h2.7v-4.1h2.3
		c0.6,0,1.3-0.1,1.8-0.4c0.6-0.3,1.1-0.6,1.6-1.1c0.5-0.5,0.8-1.1,1-1.7C141.4,91.4,141.4,89.8,140.9,88.5L140.9,88.5z M138.4,91.7
		c-0.1,0.3-0.3,0.6-0.6,0.8c-0.2,0.2-0.5,0.4-0.8,0.5c-0.3,0.1-0.7,0.2-1,0.2h-1.8V88h1.8c0.3,0,0.7,0.1,1,0.2
		c0.3,0.1,0.6,0.3,0.8,0.5C138.6,89.5,138.8,90.7,138.4,91.7L138.4,91.7z"/>
	<path class="st0" d="M118.4,88.5c-0.5-1.3-1.5-2.3-2.8-2.8c-1.4-0.5-2.9-0.5-4.3,0c-0.6,0.3-1.2,0.6-1.7,1.1
		c-0.5,0.5-0.9,1.1-1.1,1.7c-0.5,1.4-0.5,3,0,4.4c0.5,1.3,1.5,2.3,2.8,2.8c1.4,0.5,2.9,0.5,4.3,0c1.3-0.5,2.3-1.5,2.8-2.8
		C118.9,91.5,118.9,90,118.4,88.5L118.4,88.5z M115.9,91.9c-0.1,0.3-0.3,0.6-0.5,0.8c-0.2,0.2-0.5,0.4-0.8,0.5
		c-0.7,0.3-1.5,0.3-2.3,0c-0.3-0.1-0.6-0.3-0.8-0.5c-0.2-0.2-0.4-0.5-0.5-0.8c-0.3-0.8-0.3-1.6,0-2.3c0.2-0.6,0.7-1.1,1.3-1.4
		c0.7-0.3,1.6-0.3,2.3,0c0.3,0.1,0.6,0.3,0.8,0.5c0.2,0.2,0.4,0.5,0.5,0.8C116.1,90.3,116.1,91.1,115.9,91.9L115.9,91.9z"/>
	<g transform="translate(43.322 70.537)">
		<path class="st1" d="M32.4,33L32.4,33l-11.8-7.7c0.7-0.7,1.4-1.4,2.1-2l3.8,2.5l-1.7-4.4c0.8-0.7,1.6-1.4,2.4-2L32.4,33z"/>
		<path class="st1" d="M30.5,10.4c-0.3,0.1-0.5,0.2-0.8,0.3c-1.6,0.7-3.2,1.5-4.7,2.4h-3.3l-1.9-4.9l-1.9,4.9H4.2L0,10.4h15.8
			l4-10.4l4,10.4L30.5,10.4z"/>
		<g transform="translate(6.23 10.19)">
			<path class="st0" d="M33.2,0c-1.7,0.7-12,3.7-25.7,20c-0.2,0.2-2.4,2.7-5.1,2.7H0.6l0,0H0c2.1-5.4,4.4-11.3,4.9-12.6
				C5.4,9,5,7.6,3.9,6.9L3.8,6.8h2.9c1.1,0,2,0.8,2.1,1.9c0,0,0,0.1,0,0.1c0,0.4-0.1,0.8-0.2,1.1c-0.7,1.7-1.5,4-2.1,5.5
				C6.7,15.3,7,15,7.2,14.8c4.7-5.3,10.5-9.5,16.9-12.5c2.7-1.2,5.6-2,8.5-2.2C32.8,0,33,0,33.2,0z"/>
		</g>
	</g>
	<g transform="translate(162.001 80.948)">
		<path class="st1" d="M8.8,0h-2C6.1,0,5.4,0.5,5.1,1.2L0,14.9h3.1l0.8-2.3c0.3-0.7,0.9-1.2,1.7-1.2h4.5l1.2,3.6h3.1L8.8,0z
			 M5.2,8.7l2-5.5l2,5.5H5.2z"/>
		<path class="st1" d="M56.1,4.7h3.1l2.5,6.5h0.1l2.6-6.5h3.1l-4.4,10.2h-2.7L56.1,4.7z"/>
		<path class="st1" d="M44.9,4.7c-0.5-0.2-1.1-0.2-1.7-0.2c-0.7,0-1.5,0.1-2.1,0.4c-0.3,0.1-0.5,0.3-0.8,0.4V4.7h-2.7v10.2h2.7V9.8
			c0-0.1,0-0.2,0-0.3c0-0.3,0.1-0.6,0.2-0.8c0.1-0.2,0.1-0.3,0.2-0.5c0-0.1,0.1-0.1,0.1-0.2c0.1-0.1,0.2-0.3,0.3-0.4
			c0.1-0.1,0.2-0.2,0.3-0.3c0.2-0.1,0.3-0.2,0.5-0.3c0,0,0,0,0,0c0.2-0.1,0.5-0.1,0.8-0.1c0.2,0,0.5,0,0.7,0.1
			c0.2,0,0.4,0.1,0.6,0.2l0-0.1c0,0,0,0,0,0l0.1-0.3L45,4.7C45,4.7,44.9,4.7,44.9,4.7z"/>
		<path class="st1" d="M24.7,7.5c-0.2-0.6-0.6-1.2-1-1.7c-0.4-0.5-1-0.9-1.6-1.1c-0.6-0.2-1.2-0.4-1.8-0.4h-4.9V19h2.7V15h2.3
			c0.6,0,1.3-0.1,1.8-0.4c0.6-0.3,1.1-0.6,1.6-1.1c0.5-0.5,0.8-1.1,1-1.7C25.2,10.4,25.2,8.9,24.7,7.5z M22.2,10.7
			c-0.1,0.3-0.3,0.6-0.6,0.8c-0.2,0.2-0.5,0.4-0.8,0.5c-0.3,0.1-0.7,0.2-1,0.2h-1.8V7.1h1.8c0.3,0,0.7,0.1,1,0.2
			c0.3,0.1,0.6,0.3,0.8,0.5C22.4,8.5,22.6,9.7,22.2,10.7z"/>
		<path class="st1" d="M35.8,7.5c-0.2-0.6-0.6-1.2-1-1.7c-0.4-0.5-1-0.9-1.6-1.1c-0.6-0.2-1.2-0.4-1.8-0.4h-4.9V19H29V15h2.3
			c0.6,0,1.3-0.1,1.8-0.4c0.6-0.3,1.1-0.6,1.6-1.1c0.5-0.5,0.8-1.1,1-1.7C36.3,10.4,36.3,8.9,35.8,7.5z M33.3,10.7
			c-0.1,0.3-0.3,0.6-0.6,0.8c-0.2,0.2-0.5,0.4-0.8,0.5c-0.3,0.1-0.7,0.2-1,0.2H29V7.1h1.8c0.3,0,0.7,0.1,1,0.2
			c0.3,0.1,0.6,0.3,0.8,0.5C33.5,8.5,33.7,9.7,33.3,10.7z"/>
		<path class="st1" d="M80.2,11.7c0.2,0.6,0.6,1.2,1,1.7c0.4,0.5,1,0.9,1.6,1.1c0.6,0.2,1.2,0.4,1.8,0.4h4.9V0H87v4.2h-2.3
			c-0.6,0-1.3,0.1-1.8,0.4c-0.6,0.3-1.1,0.6-1.6,1.1c-0.5,0.5-0.8,1.1-1,1.7C79.7,8.8,79.7,10.3,80.2,11.7L80.2,11.7z M82.7,8.5
			c0.1-0.3,0.3-0.6,0.6-0.8c0.2-0.2,0.5-0.4,0.8-0.5C84.5,7,84.8,7,85.2,7H87v5.2h-1.8c-0.3,0-0.7-0.1-1-0.2
			c-0.3-0.1-0.6-0.3-0.8-0.5C82.5,10.7,82.3,9.5,82.7,8.5z"/>
		<path class="st1" d="M55.6,7.6C55,6.3,54,5.3,52.7,4.8c-1.4-0.5-2.9-0.5-4.3,0c-1.3,0.5-2.3,1.5-2.8,2.8c-0.5,1.4-0.5,3,0,4.4
			c0.5,1.3,1.5,2.3,2.8,2.8c1.4,0.5,2.9,0.5,4.3,0c1.3-0.5,2.3-1.5,2.8-2.8C56.1,10.6,56.1,9,55.6,7.6z M53.1,10.9
			c-0.2,0.6-0.7,1.1-1.3,1.4c-0.7,0.3-1.5,0.3-2.3,0c-0.6-0.2-1.1-0.7-1.4-1.4c-0.3-0.8-0.3-1.6,0-2.3c0.2-0.6,0.7-1.1,1.3-1.4
			C50.2,7,51,7,51.7,7.3c0.6,0.2,1.1,0.7,1.3,1.4C53.3,9.4,53.3,10.2,53.1,10.9L53.1,10.9z"/>
		<g transform="translate(91.425 0.176)">
			<path class="st1" d="M3.1,1.5c0,0.8-0.7,1.6-1.5,1.6C0.7,3.1,0,2.4,0,1.6C0,0.7,0.6,0,1.5,0c0,0,0,0,0,0C2.4,0,3.1,0.6,3.1,1.5
				C3.1,1.5,3.1,1.5,3.1,1.5z M0.4,1.5c0,0.6,0.5,1.2,1.1,1.2c0,0,0,0,0,0c0.6,0,1.1-0.5,1.1-1.1c0,0,0,0,0,0c0-0.6-0.5-1.2-1.1-1.2
				S0.4,0.8,0.4,1.5C0.4,1.4,0.4,1.5,0.4,1.5L0.4,1.5z M1.3,2.3H1V0.8c0.2,0,0.4,0,0.6,0c0.2,0,0.4,0,0.5,0.1C2.1,0.9,2.2,1,2.2,1.2
				c0,0.2-0.1,0.3-0.3,0.3v0C2,1.6,2.1,1.7,2.2,1.9c0,0.1,0.1,0.3,0.1,0.4H1.9C1.8,2.2,1.8,2,1.8,1.9c0-0.2-0.1-0.2-0.3-0.2H1.3
				L1.3,2.3z M1.3,1.4h0.2c0.2,0,0.3-0.1,0.3-0.2C1.8,1.1,1.7,1,1.5,1C1.4,1,1.4,1,1.3,1V1.4z"/>
		</g>
		<path class="st1" d="M78.3,12.5c-0.5,0.8-1.1,1.5-1.9,2c-0.9,0.5-1.9,0.8-2.9,0.8c-0.7,0-1.5-0.1-2.2-0.4C70,14.3,69,13.3,68.5,12
			c-0.3-0.7-0.4-1.4-0.4-2.2c0-0.7,0.1-1.4,0.4-2.1C69,6.4,70,5.4,71.3,4.8c0.7-0.3,1.4-0.4,2.1-0.4c0.7,0,1.5,0.1,2.2,0.4
			c0.6,0.3,1.2,0.6,1.6,1.1c0.4,0.5,0.8,1.1,1,1.7c0.2,0.7,0.3,1.4,0.3,2.1V10c0,0.1,0,0.2,0,0.2c0,0.1,0,0.2,0,0.2h-7.7
			c0,0.4,0.2,0.7,0.3,1.1c0.2,0.3,0.4,0.5,0.6,0.8c0.3,0.2,0.5,0.3,0.8,0.4c0.3,0.1,0.6,0.1,0.9,0.1c0.5,0,1.1-0.1,1.6-0.4
			c0.4-0.3,0.7-0.6,1-1.1L78.3,12.5z M75.8,8.5c0-0.2-0.1-0.4-0.2-0.6c-0.1-0.2-0.3-0.4-0.5-0.6c-0.2-0.2-0.5-0.4-0.8-0.5
			c-0.3-0.1-0.7-0.2-1.1-0.2c-0.6,0-1.1,0.2-1.5,0.5c-0.5,0.4-0.8,0.8-0.9,1.4L75.8,8.5z"/>
	</g>
	<path class="st0" d="M152.8,93.4c-0.5,0.8-1.1,1.5-1.9,2c-0.9,0.5-1.9,0.8-2.9,0.8c-0.7,0-1.5-0.1-2.2-0.4
		c-1.3-0.5-2.3-1.6-2.9-2.9c-0.3-0.7-0.4-1.4-0.4-2.2c0-0.7,0.1-1.4,0.4-2.1c0.5-1.3,1.5-2.3,2.8-2.9c0.7-0.3,1.4-0.4,2.1-0.4
		c0.7,0,1.5,0.1,2.2,0.4c0.6,0.3,1.2,0.6,1.6,1.1c0.4,0.5,0.8,1.1,1,1.7c0.2,0.7,0.3,1.4,0.3,2.1v0.2c0,0.1,0,0.2,0,0.2
		c0,0.1,0,0.2,0,0.2h-7.7c0,0.4,0.2,0.7,0.3,1.1c0.2,0.3,0.4,0.5,0.6,0.8c0.3,0.2,0.5,0.3,0.8,0.4c0.3,0.1,0.6,0.1,0.9,0.1
		c0.5,0,1.1-0.1,1.6-0.4c0.4-0.3,0.7-0.6,1-1.1L152.8,93.4z M150.3,89.4c0-0.2-0.1-0.4-0.2-0.6c-0.1-0.2-0.3-0.4-0.5-0.6
		c-0.2-0.2-0.5-0.4-0.8-0.5c-0.3-0.1-0.7-0.2-1.1-0.2c-0.6,0-1.1,0.2-1.5,0.5c-0.5,0.4-0.8,0.8-0.9,1.4L150.3,89.4z"/>
</g>
</svg>
